<svg width="22" height="23" viewBox="0 0 22 23" fill="none" xmlns="http://www.w3.org/2000/svg">
<path d="M20.7969 20.4968L15.7352 15.252C16.9898 13.667 17.7461 11.6367 17.7461 9.4239C17.7461 4.34827 13.7715 0.229889 8.87305 0.229889C3.97031 0.229889 0 4.34827 0 9.4239C0 14.4995 3.97031 18.6179 8.87305 18.6179C11.0086 18.6179 12.9637 17.8388 14.4934 16.5387L19.5551 21.7791C19.8988 22.1352 20.4531 22.1352 20.7969 21.7791C21.1406 21.4273 21.1406 20.8485 20.7969 20.4968ZM8.87305 16.788C4.95 16.788 1.76172 13.4844 1.76172 9.4239C1.76172 5.3634 4.95 2.05534 8.87305 2.05534C12.7918 2.05534 15.9844 5.3634 15.9844 9.4239C15.9844 13.4844 12.7918 16.788 8.87305 16.788Z" fill="#005DAF"/>
</svg>
